<?xml version="1.0" standalone="no"?><!DOCTYPE svg PUBLIC "-//W3C//DTD SVG 1.1//EN" "http://www.w3.org/Graphics/SVG/1.1/DTD/svg11.dtd"><svg t="1579507354463" class="icon" viewBox="0 0 1044 1024" version="1.1" xmlns="http://www.w3.org/2000/svg" p-id="3874" xmlns:xlink="http://www.w3.org/1999/xlink" width="203.90625" height="200"><defs><style type="text/css"></style></defs><path d="M672.483316 869.548177l1.141764-78.768918h182.220475c25.554998 0 60.86417 3.994037 76.305786-6.842034 22.446148-15.766612 15.946216-66.158194 15.946216-103.88346V391.230122c0-18.165601 4.434493-105.273248-2.279253-113.017576H80.262496v375.57636c0 42.001537-9.433455 112.371859 15.946216 130.139766 33.171037 23.22443 170.409413-4.887778 220.946388 7.992352v77.627153c-91.567798 0.513153-220.826653 14.744584-273.334988-26.256306-46.282085-36.143045-42.142654-104.700228-42.138378-188.3612V248.530947c0-62.172709-8.304519-144.260014 13.684068-186.073395C54.47658-11.98378 141.674029 0.806548 252.271235 0.810824h608.128549c24.374747 0 53.218197-2.565763 74.030809 2.283529 102.356831 23.94712 92.252002 115.356696 92.247726 239.727772v347.040801c0 54.171805 8.860434 153.287223-4.554229 196.349275a120.928678 120.928678 0 0 1-80.860015 79.910683c-22.621475 6.867692-57.485916 3.421017-85.41852 3.421017h-183.362239zM103.042194 116.107652c-38.29401 16.249831-41.210427 85.606676 15.946216 85.619505l27.333926-2.283529c14.68044-6.842034 25.076055-48.916268 12.525199-69.634803-8.997275-14.855767-31.109874-14.671887-55.805341-13.701173z m118.452716 0c-39.213408 16.54917-42.027195 85.610952 15.946216 85.619505l27.333926-2.283529c14.111695-6.679536 24.541521-45.277161 13.684069-67.351274-8.321624-16.839957-30.870403-17.006731-56.972763-15.984702z m95.668743 3.421017l1.137488 78.768918 629.804968-1.141764V119.532945H317.150824z m117.306675 592.477396c-35.77101 0.57302-97.498987 7.979522-115.031699-11.417645-1.111831-27.132942 27.312545-42.335086 41.00089-59.358922l108.189665-121.01848c12.961378-13.632753 25.537893-41.5397 48.97186-43.378496 24.139552 14.077485 42.129825 40.31241 59.222081 61.646727l93.38949 105.025225c9.407797 11.75547 46.089653 34.924308 37.584149 57.075394-11.06699 24.934938-83.584 5.353892-112.752446 12.559409 1.928598 168.4295-95.549007 254.224332-226.642382 291.098619-20.556036 5.785795-120.411249 27.175704-145.77809 17.105086v-1.141765c28.715162-4.840739 54.129043-18.879738 77.443274-29.681599 100.210143-46.40182 135.048926-129.994373 134.39038-278.509277z" fill="#ffffff" p-id="3875"></path></svg>